<svg xmlns="http://www.w3.org/2000/svg" version="1.1" xmlns:xlink="http://www.w3.org/1999/xlink" xmlns:svgjs="http://svgjs.dev/svgjs" width="1440" height="560" preserveAspectRatio="none" viewBox="0 0 1440 560"><g mask="url(&quot;#SvgjsMask1094&quot;)" fill="none"><rect width="1440" height="560" x="0" y="0" fill="rgba(233, 233, 233, 1)"></rect><path d="M 0,124 C 72,139.8 216,203 360,203 C 504,203 576,126.4 720,124 C 864,121.6 936,196.2 1080,191 C 1224,185.8 1368,116.6 1440,98L1440 560L0 560z" fill="rgba(31, 27, 25, 1)"></path><path d="M 0,532 C 96,489.8 288,329.8 480,321 C 672,312.2 768,489.4 960,488 C 1152,486.6 1344,348.8 1440,314L1440 560L0 560z" fill="rgba(17, 20, 20, 1)"></path></g><defs><mask id="SvgjsMask1094"><rect width="1440" height="560" fill="#ffffff"></rect></mask></defs></svg>